<svg width="1920" height="3831" viewBox="0 0 1920 3831" fill="none" xmlns="http://www.w3.org/2000/svg">
<g filter="url(#filter0_d_1_5893)">
<rect x="-68.5" y="0.5" width="147" height="147" stroke="#666666"/>
<rect x="78.5" y="0.5" width="147" height="147" stroke="#666666"/>
<rect x="225.5" y="0.5" width="147" height="147" stroke="#666666"/>
<rect x="372.5" y="0.5" width="147" height="147" stroke="#666666"/>
<rect x="519.5" y="0.5" width="147" height="147" stroke="#666666"/>
<rect x="666.5" y="0.5" width="147" height="147" stroke="#666666"/>
<rect x="813.5" y="0.5" width="147" height="147" stroke="#666666"/>
<rect x="960.5" y="0.5" width="147" height="147" stroke="#666666"/>
<rect x="1107.5" y="0.5" width="147" height="147" stroke="#666666"/>
<rect x="1254.5" y="0.5" width="147" height="147" stroke="#666666"/>
<rect x="1401.5" y="0.5" width="147" height="147" stroke="#666666"/>
<rect x="1548.5" y="0.5" width="147" height="147" stroke="#666666"/>
<rect x="1695.5" y="0.5" width="147" height="147" stroke="#666666"/>
<rect x="1842.5" y="0.5" width="147" height="147" stroke="#666666"/>
<rect x="-68.5" y="147.5" width="147" height="147" stroke="#666666"/>
<rect x="78.5" y="147.5" width="147" height="147" stroke="#666666"/>
<rect x="225.5" y="147.5" width="147" height="147" stroke="#666666"/>
<rect x="372.5" y="147.5" width="147" height="147" stroke="#666666"/>
<rect x="519.5" y="147.5" width="147" height="147" stroke="#666666"/>
<rect x="666.5" y="147.5" width="147" height="147" stroke="#666666"/>
<rect x="813.5" y="147.5" width="147" height="147" stroke="#666666"/>
<rect x="960.5" y="147.5" width="147" height="147" stroke="#666666"/>
<rect x="1107.5" y="147.5" width="147" height="147" stroke="#666666"/>
<rect x="1254.5" y="147.5" width="147" height="147" stroke="#666666"/>
<rect x="1401.5" y="147.5" width="147" height="147" stroke="#666666"/>
<rect x="1548.5" y="147.5" width="147" height="147" stroke="#666666"/>
<rect x="1695.5" y="147.5" width="147" height="147" stroke="#666666"/>
<rect x="1842.5" y="147.5" width="147" height="147" stroke="#666666"/>
<rect x="-68.5" y="294.5" width="147" height="147" stroke="#666666"/>
<rect x="78.5" y="294.5" width="147" height="147" stroke="#666666"/>
<rect x="225.5" y="294.5" width="147" height="147" stroke="#666666"/>
<rect x="372.5" y="294.5" width="147" height="147" stroke="#666666"/>
<rect x="519.5" y="294.5" width="147" height="147" stroke="#666666"/>
<rect x="666.5" y="294.5" width="147" height="147" stroke="#666666"/>
<rect x="813.5" y="294.5" width="147" height="147" stroke="#666666"/>
<rect x="960.5" y="294.5" width="147" height="147" stroke="#666666"/>
<rect x="1107.5" y="294.5" width="147" height="147" stroke="#666666"/>
<rect x="1254.5" y="294.5" width="147" height="147" stroke="#666666"/>
<rect x="1401.5" y="294.5" width="147" height="147" stroke="#666666"/>
<rect x="1548.5" y="294.5" width="147" height="147" stroke="#666666"/>
<rect x="1695.5" y="294.5" width="147" height="147" stroke="#666666"/>
<rect x="1842.5" y="294.5" width="147" height="147" stroke="#666666"/>
<rect x="-68.5" y="441.5" width="147" height="147" stroke="#666666"/>
<rect x="78.5" y="441.5" width="147" height="147" stroke="#666666"/>
<rect x="225.5" y="441.5" width="147" height="147" stroke="#666666"/>
<rect x="372.5" y="441.5" width="147" height="147" stroke="#666666"/>
<rect x="519.5" y="441.5" width="147" height="147" stroke="#666666"/>
<rect x="666.5" y="441.5" width="147" height="147" stroke="#666666"/>
<rect x="813.5" y="441.5" width="147" height="147" stroke="#666666"/>
<rect x="960.5" y="441.5" width="147" height="147" stroke="#666666"/>
<rect x="1107.5" y="441.5" width="147" height="147" stroke="#666666"/>
<rect x="1254.5" y="441.5" width="147" height="147" stroke="#666666"/>
<rect x="1401.5" y="441.5" width="147" height="147" stroke="#666666"/>
<rect x="1548.5" y="441.5" width="147" height="147" stroke="#666666"/>
<rect x="1695.5" y="441.5" width="147" height="147" stroke="#666666"/>
<rect x="1842.5" y="441.5" width="147" height="147" stroke="#666666"/>
<rect x="-68.5" y="588.5" width="147" height="147" stroke="#666666"/>
<rect x="78.5" y="588.5" width="147" height="147" stroke="#666666"/>
<rect x="225.5" y="588.5" width="147" height="147" stroke="#666666"/>
<rect x="372.5" y="588.5" width="147" height="147" stroke="#666666"/>
<rect x="519.5" y="588.5" width="147" height="147" stroke="#666666"/>
<rect x="666.5" y="588.5" width="147" height="147" stroke="#666666"/>
<rect x="813.5" y="588.5" width="147" height="147" stroke="#666666"/>
<rect x="960.5" y="588.5" width="147" height="147" stroke="#666666"/>
<rect x="1107.5" y="588.5" width="147" height="147" stroke="#666666"/>
<rect x="1254.5" y="588.5" width="147" height="147" stroke="#666666"/>
<rect x="1401.5" y="588.5" width="147" height="147" stroke="#666666"/>
<rect x="1548.5" y="588.5" width="147" height="147" stroke="#666666"/>
<rect x="1695.5" y="588.5" width="147" height="147" stroke="#666666"/>
<rect x="1842.5" y="588.5" width="147" height="147" stroke="#666666"/>
<rect x="-68.5" y="735.5" width="147" height="147" stroke="#666666"/>
<rect x="78.5" y="735.5" width="147" height="147" stroke="#666666"/>
<rect x="225.5" y="735.5" width="147" height="147" stroke="#666666"/>
<rect x="372.5" y="735.5" width="147" height="147" stroke="#666666"/>
<rect x="519.5" y="735.5" width="147" height="147" stroke="#666666"/>
<rect x="666.5" y="735.5" width="147" height="147" stroke="#666666"/>
<rect x="813.5" y="735.5" width="147" height="147" stroke="#666666"/>
<rect x="960.5" y="735.5" width="147" height="147" stroke="#666666"/>
<rect x="1107.5" y="735.5" width="147" height="147" stroke="#666666"/>
<rect x="1254.5" y="735.5" width="147" height="147" stroke="#666666"/>
<rect x="1401.5" y="735.5" width="147" height="147" stroke="#666666"/>
<rect x="1548.5" y="735.5" width="147" height="147" stroke="#666666"/>
<rect x="1695.5" y="735.5" width="147" height="147" stroke="#666666"/>
<rect x="1842.5" y="735.5" width="147" height="147" stroke="#666666"/>
<rect x="-68.5" y="882.5" width="147" height="147" stroke="#666666"/>
<rect x="78.5" y="882.5" width="147" height="147" stroke="#666666"/>
<rect x="225.5" y="882.5" width="147" height="147" stroke="#666666"/>
<rect x="372.5" y="882.5" width="147" height="147" stroke="#666666"/>
<rect x="519.5" y="882.5" width="147" height="147" stroke="#666666"/>
<rect x="666.5" y="882.5" width="147" height="147" stroke="#666666"/>
<rect x="813.5" y="882.5" width="147" height="147" stroke="#666666"/>
<rect x="960.5" y="882.5" width="147" height="147" stroke="#666666"/>
<rect x="1107.5" y="882.5" width="147" height="147" stroke="#666666"/>
<rect x="1254.5" y="882.5" width="147" height="147" stroke="#666666"/>
<rect x="1401.5" y="882.5" width="147" height="147" stroke="#666666"/>
<rect x="1548.5" y="882.5" width="147" height="147" stroke="#666666"/>
<rect x="1695.5" y="882.5" width="147" height="147" stroke="#666666"/>
<rect x="1842.5" y="882.5" width="147" height="147" stroke="#666666"/>
<rect x="-68.5" y="1029.5" width="147" height="147" stroke="#666666"/>
<rect x="78.5" y="1029.5" width="147" height="147" stroke="#666666"/>
<rect x="225.5" y="1029.5" width="147" height="147" stroke="#666666"/>
<rect x="372.5" y="1029.5" width="147" height="147" stroke="#666666"/>
<rect x="519.5" y="1029.5" width="147" height="147" stroke="#666666"/>
<rect x="666.5" y="1029.5" width="147" height="147" stroke="#666666"/>
<rect x="813.5" y="1029.5" width="147" height="147" stroke="#666666"/>
<rect x="960.5" y="1029.5" width="147" height="147" stroke="#666666"/>
<rect x="1107.5" y="1029.5" width="147" height="147" stroke="#666666"/>
<rect x="1254.5" y="1029.5" width="147" height="147" stroke="#666666"/>
<rect x="1401.5" y="1029.5" width="147" height="147" stroke="#666666"/>
<rect x="1548.5" y="1029.5" width="147" height="147" stroke="#666666"/>
<rect x="1695.5" y="1029.5" width="147" height="147" stroke="#666666"/>
<rect x="1842.5" y="1029.5" width="147" height="147" stroke="#666666"/>
<rect x="-68.5" y="1176.5" width="147" height="147" stroke="#666666"/>
<rect x="78.5" y="1176.5" width="147" height="147" stroke="#666666"/>
<rect x="225.5" y="1176.5" width="147" height="147" stroke="#666666"/>
<rect x="372.5" y="1176.5" width="147" height="147" stroke="#666666"/>
<rect x="519.5" y="1176.5" width="147" height="147" stroke="#666666"/>
<rect x="666.5" y="1176.5" width="147" height="147" stroke="#666666"/>
<rect x="813.5" y="1176.5" width="147" height="147" stroke="#666666"/>
<rect x="960.5" y="1176.5" width="147" height="147" stroke="#666666"/>
<rect x="1107.5" y="1176.5" width="147" height="147" stroke="#666666"/>
<rect x="1254.5" y="1176.5" width="147" height="147" stroke="#666666"/>
<rect x="1401.5" y="1176.5" width="147" height="147" stroke="#666666"/>
<rect x="1548.5" y="1176.5" width="147" height="147" stroke="#666666"/>
<rect x="1695.5" y="1176.5" width="147" height="147" stroke="#666666"/>
<rect x="1842.5" y="1176.5" width="147" height="147" stroke="#666666"/>
<rect x="-68.5" y="1323.5" width="147" height="147" stroke="#666666"/>
<rect x="78.5" y="1323.5" width="147" height="147" stroke="#666666"/>
<rect x="225.5" y="1323.5" width="147" height="147" stroke="#666666"/>
<rect x="372.5" y="1323.5" width="147" height="147" stroke="#666666"/>
<rect x="519.5" y="1323.5" width="147" height="147" stroke="#666666"/>
<rect x="666.5" y="1323.5" width="147" height="147" stroke="#666666"/>
<rect x="813.5" y="1323.5" width="147" height="147" stroke="#666666"/>
<rect x="960.5" y="1323.5" width="147" height="147" stroke="#666666"/>
<rect x="1107.5" y="1323.5" width="147" height="147" stroke="#666666"/>
<rect x="1254.5" y="1323.5" width="147" height="147" stroke="#666666"/>
<rect x="1401.5" y="1323.5" width="147" height="147" stroke="#666666"/>
<rect x="1548.5" y="1323.5" width="147" height="147" stroke="#666666"/>
<rect x="1695.5" y="1323.5" width="147" height="147" stroke="#666666"/>
<rect x="1842.5" y="1323.5" width="147" height="147" stroke="#666666"/>
<rect x="-68.5" y="1470.5" width="147" height="147" stroke="#666666"/>
<rect x="78.5" y="1470.5" width="147" height="147" stroke="#666666"/>
<rect x="225.5" y="1470.5" width="147" height="147" stroke="#666666"/>
<rect x="372.5" y="1470.5" width="147" height="147" stroke="#666666"/>
<rect x="519.5" y="1470.5" width="147" height="147" stroke="#666666"/>
<rect x="666.5" y="1470.5" width="147" height="147" stroke="#666666"/>
<rect x="813.5" y="1470.5" width="147" height="147" stroke="#666666"/>
<rect x="960.5" y="1470.5" width="147" height="147" stroke="#666666"/>
<rect x="1107.5" y="1470.5" width="147" height="147" stroke="#666666"/>
<rect x="1254.5" y="1470.5" width="147" height="147" stroke="#666666"/>
<rect x="1401.5" y="1470.5" width="147" height="147" stroke="#666666"/>
<rect x="1548.5" y="1470.5" width="147" height="147" stroke="#666666"/>
<rect x="1695.5" y="1470.5" width="147" height="147" stroke="#666666"/>
<rect x="1842.5" y="1470.5" width="147" height="147" stroke="#666666"/>
<rect x="-68.5" y="1617.5" width="147" height="147" stroke="#666666"/>
<rect x="78.5" y="1617.5" width="147" height="147" stroke="#666666"/>
<rect x="225.5" y="1617.5" width="147" height="147" stroke="#666666"/>
<rect x="372.5" y="1617.5" width="147" height="147" stroke="#666666"/>
<rect x="519.5" y="1617.5" width="147" height="147" stroke="#666666"/>
<rect x="666.5" y="1617.5" width="147" height="147" stroke="#666666"/>
<rect x="813.5" y="1617.5" width="147" height="147" stroke="#666666"/>
<rect x="960.5" y="1617.5" width="147" height="147" stroke="#666666"/>
<rect x="1107.5" y="1617.5" width="147" height="147" stroke="#666666"/>
<rect x="1254.5" y="1617.5" width="147" height="147" stroke="#666666"/>
<rect x="1401.5" y="1617.5" width="147" height="147" stroke="#666666"/>
<rect x="1548.5" y="1617.5" width="147" height="147" stroke="#666666"/>
<rect x="1695.5" y="1617.5" width="147" height="147" stroke="#666666"/>
<rect x="1842.5" y="1617.5" width="147" height="147" stroke="#666666"/>
<rect x="-68.5" y="1764.5" width="147" height="147" stroke="#666666"/>
<rect x="78.5" y="1764.5" width="147" height="147" stroke="#666666"/>
<rect x="225.5" y="1764.5" width="147" height="147" stroke="#666666"/>
<rect x="372.5" y="1764.5" width="147" height="147" stroke="#666666"/>
<rect x="519.5" y="1764.5" width="147" height="147" stroke="#666666"/>
<rect x="666.5" y="1764.5" width="147" height="147" stroke="#666666"/>
<rect x="813.5" y="1764.5" width="147" height="147" stroke="#666666"/>
<rect x="960.5" y="1764.5" width="147" height="147" stroke="#666666"/>
<rect x="1107.5" y="1764.5" width="147" height="147" stroke="#666666"/>
<rect x="1254.5" y="1764.5" width="147" height="147" stroke="#666666"/>
<rect x="1401.5" y="1764.5" width="147" height="147" stroke="#666666"/>
<rect x="1548.5" y="1764.5" width="147" height="147" stroke="#666666"/>
<rect x="1695.5" y="1764.5" width="147" height="147" stroke="#666666"/>
<rect x="1842.5" y="1764.5" width="147" height="147" stroke="#666666"/>
<rect x="-68.5" y="1911.5" width="147" height="147" stroke="#666666"/>
<rect x="78.5" y="1911.5" width="147" height="147" stroke="#666666"/>
<rect x="225.5" y="1911.5" width="147" height="147" stroke="#666666"/>
<rect x="372.5" y="1911.5" width="147" height="147" stroke="#666666"/>
<rect x="519.5" y="1911.5" width="147" height="147" stroke="#666666"/>
<rect x="666.5" y="1911.5" width="147" height="147" stroke="#666666"/>
<rect x="813.5" y="1911.5" width="147" height="147" stroke="#666666"/>
<rect x="960.5" y="1911.5" width="147" height="147" stroke="#666666"/>
<rect x="1107.5" y="1911.5" width="147" height="147" stroke="#666666"/>
<rect x="1254.5" y="1911.5" width="147" height="147" stroke="#666666"/>
<rect x="1401.5" y="1911.5" width="147" height="147" stroke="#666666"/>
<rect x="1548.5" y="1911.5" width="147" height="147" stroke="#666666"/>
<rect x="1695.5" y="1911.5" width="147" height="147" stroke="#666666"/>
<rect x="1842.5" y="1911.5" width="147" height="147" stroke="#666666"/>
<rect x="-68.5" y="2058.5" width="147" height="147" stroke="#666666"/>
<rect x="78.5" y="2058.5" width="147" height="147" stroke="#666666"/>
<rect x="225.5" y="2058.5" width="147" height="147" stroke="#666666"/>
<rect x="372.5" y="2058.5" width="147" height="147" stroke="#666666"/>
<rect x="519.5" y="2058.5" width="147" height="147" stroke="#666666"/>
<rect x="666.5" y="2058.5" width="147" height="147" stroke="#666666"/>
<rect x="813.5" y="2058.5" width="147" height="147" stroke="#666666"/>
<rect x="960.5" y="2058.5" width="147" height="147" stroke="#666666"/>
<rect x="1107.5" y="2058.5" width="147" height="147" stroke="#666666"/>
<rect x="1254.5" y="2058.5" width="147" height="147" stroke="#666666"/>
<rect x="1401.5" y="2058.5" width="147" height="147" stroke="#666666"/>
<rect x="1548.5" y="2058.5" width="147" height="147" stroke="#666666"/>
<rect x="1695.5" y="2058.5" width="147" height="147" stroke="#666666"/>
<rect x="1842.5" y="2058.5" width="147" height="147" stroke="#666666"/>
<rect x="-68.5" y="2205.5" width="147" height="147" stroke="#666666"/>
<rect x="78.5" y="2205.5" width="147" height="147" stroke="#666666"/>
<rect x="225.5" y="2205.5" width="147" height="147" stroke="#666666"/>
<rect x="372.5" y="2205.5" width="147" height="147" stroke="#666666"/>
<rect x="519.5" y="2205.5" width="147" height="147" stroke="#666666"/>
<rect x="666.5" y="2205.5" width="147" height="147" stroke="#666666"/>
<rect x="813.5" y="2205.5" width="147" height="147" stroke="#666666"/>
<rect x="960.5" y="2205.5" width="147" height="147" stroke="#666666"/>
<rect x="1107.5" y="2205.5" width="147" height="147" stroke="#666666"/>
<rect x="1254.5" y="2205.5" width="147" height="147" stroke="#666666"/>
<rect x="1401.5" y="2205.5" width="147" height="147" stroke="#666666"/>
<rect x="1548.5" y="2205.5" width="147" height="147" stroke="#666666"/>
<rect x="1695.5" y="2205.5" width="147" height="147" stroke="#666666"/>
<rect x="1842.5" y="2205.5" width="147" height="147" stroke="#666666"/>
<rect x="-68.5" y="2352.5" width="147" height="147" stroke="#666666"/>
<rect x="78.5" y="2352.5" width="147" height="147" stroke="#666666"/>
<rect x="225.5" y="2352.5" width="147" height="147" stroke="#666666"/>
<rect x="372.5" y="2352.5" width="147" height="147" stroke="#666666"/>
<rect x="519.5" y="2352.5" width="147" height="147" stroke="#666666"/>
<rect x="666.5" y="2352.5" width="147" height="147" stroke="#666666"/>
<rect x="813.5" y="2352.5" width="147" height="147" stroke="#666666"/>
<rect x="960.5" y="2352.5" width="147" height="147" stroke="#666666"/>
<rect x="1107.5" y="2352.5" width="147" height="147" stroke="#666666"/>
<rect x="1254.5" y="2352.5" width="147" height="147" stroke="#666666"/>
<rect x="1401.5" y="2352.5" width="147" height="147" stroke="#666666"/>
<rect x="1548.5" y="2352.5" width="147" height="147" stroke="#666666"/>
<rect x="1695.5" y="2352.5" width="147" height="147" stroke="#666666"/>
<rect x="1842.5" y="2352.5" width="147" height="147" stroke="#666666"/>
<rect x="-68.5" y="2499.5" width="147" height="147" stroke="#666666"/>
<rect x="78.5" y="2499.5" width="147" height="147" stroke="#666666"/>
<rect x="225.5" y="2499.5" width="147" height="147" stroke="#666666"/>
<rect x="372.5" y="2499.5" width="147" height="147" stroke="#666666"/>
<rect x="519.5" y="2499.5" width="147" height="147" stroke="#666666"/>
<rect x="666.5" y="2499.5" width="147" height="147" stroke="#666666"/>
<rect x="813.5" y="2499.5" width="147" height="147" stroke="#666666"/>
<rect x="960.5" y="2499.5" width="147" height="147" stroke="#666666"/>
<rect x="1107.5" y="2499.5" width="147" height="147" stroke="#666666"/>
<rect x="1254.5" y="2499.5" width="147" height="147" stroke="#666666"/>
<rect x="1401.5" y="2499.5" width="147" height="147" stroke="#666666"/>
<rect x="1548.5" y="2499.5" width="147" height="147" stroke="#666666"/>
<rect x="1695.5" y="2499.5" width="147" height="147" stroke="#666666"/>
<rect x="1842.5" y="2499.5" width="147" height="147" stroke="#666666"/>
<rect x="-68.5" y="2646.5" width="147" height="147" stroke="#666666"/>
<rect x="78.5" y="2646.5" width="147" height="147" stroke="#666666"/>
<rect x="225.5" y="2646.5" width="147" height="147" stroke="#666666"/>
<rect x="372.5" y="2646.5" width="147" height="147" stroke="#666666"/>
<rect x="519.5" y="2646.5" width="147" height="147" stroke="#666666"/>
<rect x="666.5" y="2646.5" width="147" height="147" stroke="#666666"/>
<rect x="813.5" y="2646.5" width="147" height="147" stroke="#666666"/>
<rect x="960.5" y="2646.5" width="147" height="147" stroke="#666666"/>
<rect x="1107.5" y="2646.5" width="147" height="147" stroke="#666666"/>
<rect x="1254.5" y="2646.5" width="147" height="147" stroke="#666666"/>
<rect x="1401.5" y="2646.5" width="147" height="147" stroke="#666666"/>
<rect x="1548.5" y="2646.5" width="147" height="147" stroke="#666666"/>
<rect x="1695.5" y="2646.5" width="147" height="147" stroke="#666666"/>
<rect x="1842.5" y="2646.5" width="147" height="147" stroke="#666666"/>
<rect x="-68.5" y="2793.5" width="147" height="147" stroke="#666666"/>
<rect x="78.5" y="2793.5" width="147" height="147" stroke="#666666"/>
<rect x="225.5" y="2793.5" width="147" height="147" stroke="#666666"/>
<rect x="372.5" y="2793.5" width="147" height="147" stroke="#666666"/>
<rect x="519.5" y="2793.5" width="147" height="147" stroke="#666666"/>
<rect x="666.5" y="2793.5" width="147" height="147" stroke="#666666"/>
<rect x="813.5" y="2793.5" width="147" height="147" stroke="#666666"/>
<rect x="960.5" y="2793.5" width="147" height="147" stroke="#666666"/>
<rect x="1107.5" y="2793.5" width="147" height="147" stroke="#666666"/>
<rect x="1254.5" y="2793.5" width="147" height="147" stroke="#666666"/>
<rect x="1401.5" y="2793.5" width="147" height="147" stroke="#666666"/>
<rect x="1548.5" y="2793.5" width="147" height="147" stroke="#666666"/>
<rect x="1695.5" y="2793.5" width="147" height="147" stroke="#666666"/>
<rect x="1842.5" y="2793.5" width="147" height="147" stroke="#666666"/>
<rect x="-68.5" y="2940.5" width="147" height="147" stroke="#666666"/>
<rect x="78.5" y="2940.5" width="147" height="147" stroke="#666666"/>
<rect x="225.5" y="2940.5" width="147" height="147" stroke="#666666"/>
<rect x="372.5" y="2940.5" width="147" height="147" stroke="#666666"/>
<rect x="519.5" y="2940.5" width="147" height="147" stroke="#666666"/>
<rect x="666.5" y="2940.5" width="147" height="147" stroke="#666666"/>
<rect x="813.5" y="2940.5" width="147" height="147" stroke="#666666"/>
<rect x="960.5" y="2940.5" width="147" height="147" stroke="#666666"/>
<rect x="1107.5" y="2940.5" width="147" height="147" stroke="#666666"/>
<rect x="1254.5" y="2940.5" width="147" height="147" stroke="#666666"/>
<rect x="1401.5" y="2940.5" width="147" height="147" stroke="#666666"/>
<rect x="1548.5" y="2940.5" width="147" height="147" stroke="#666666"/>
<rect x="1695.5" y="2940.5" width="147" height="147" stroke="#666666"/>
<rect x="1842.5" y="2940.5" width="147" height="147" stroke="#666666"/>
<rect x="-68.5" y="3087.5" width="147" height="147" stroke="#666666"/>
<rect x="78.5" y="3087.5" width="147" height="147" stroke="#666666"/>
<rect x="225.5" y="3087.5" width="147" height="147" stroke="#666666"/>
<rect x="372.5" y="3087.5" width="147" height="147" stroke="#666666"/>
<rect x="519.5" y="3087.5" width="147" height="147" stroke="#666666"/>
<rect x="666.5" y="3087.5" width="147" height="147" stroke="#666666"/>
<rect x="813.5" y="3087.5" width="147" height="147" stroke="#666666"/>
<rect x="960.5" y="3087.5" width="147" height="147" stroke="#666666"/>
<rect x="1107.5" y="3087.5" width="147" height="147" stroke="#666666"/>
<rect x="1254.5" y="3087.5" width="147" height="147" stroke="#666666"/>
<rect x="1401.5" y="3087.5" width="147" height="147" stroke="#666666"/>
<rect x="1548.5" y="3087.5" width="147" height="147" stroke="#666666"/>
<rect x="1695.5" y="3087.5" width="147" height="147" stroke="#666666"/>
<rect x="1842.5" y="3087.5" width="147" height="147" stroke="#666666"/>
<rect x="-68.5" y="3234.5" width="147" height="147" stroke="#666666"/>
<rect x="78.5" y="3234.5" width="147" height="147" stroke="#666666"/>
<rect x="225.5" y="3234.5" width="147" height="147" stroke="#666666"/>
<rect x="372.5" y="3234.5" width="147" height="147" stroke="#666666"/>
<rect x="519.5" y="3234.5" width="147" height="147" stroke="#666666"/>
<rect x="666.5" y="3234.5" width="147" height="147" stroke="#666666"/>
<rect x="813.5" y="3234.5" width="147" height="147" stroke="#666666"/>
<rect x="960.5" y="3234.5" width="147" height="147" stroke="#666666"/>
<rect x="1107.5" y="3234.5" width="147" height="147" stroke="#666666"/>
<rect x="1254.5" y="3234.5" width="147" height="147" stroke="#666666"/>
<rect x="1401.5" y="3234.5" width="147" height="147" stroke="#666666"/>
<rect x="1548.5" y="3234.5" width="147" height="147" stroke="#666666"/>
<rect x="1695.5" y="3234.5" width="147" height="147" stroke="#666666"/>
<rect x="1842.5" y="3234.5" width="147" height="147" stroke="#666666"/>
<rect x="-68.5" y="3381.5" width="147" height="147" stroke="#666666"/>
<rect x="78.5" y="3381.5" width="147" height="147" stroke="#666666"/>
<rect x="225.5" y="3381.5" width="147" height="147" stroke="#666666"/>
<rect x="372.5" y="3381.5" width="147" height="147" stroke="#666666"/>
<rect x="519.5" y="3381.5" width="147" height="147" stroke="#666666"/>
<rect x="666.5" y="3381.5" width="147" height="147" stroke="#666666"/>
<rect x="813.5" y="3381.5" width="147" height="147" stroke="#666666"/>
<rect x="960.5" y="3381.5" width="147" height="147" stroke="#666666"/>
<rect x="1107.5" y="3381.5" width="147" height="147" stroke="#666666"/>
<rect x="1254.5" y="3381.5" width="147" height="147" stroke="#666666"/>
<rect x="1401.5" y="3381.5" width="147" height="147" stroke="#666666"/>
<rect x="1548.5" y="3381.5" width="147" height="147" stroke="#666666"/>
<rect x="1695.5" y="3381.5" width="147" height="147" stroke="#666666"/>
<rect x="1842.5" y="3381.5" width="147" height="147" stroke="#666666"/>
<rect x="-68.5" y="3528.5" width="147" height="147" stroke="#666666"/>
<rect x="78.5" y="3528.5" width="147" height="147" stroke="#666666"/>
<rect x="225.5" y="3528.5" width="147" height="147" stroke="#666666"/>
<rect x="372.5" y="3528.5" width="147" height="147" stroke="#666666"/>
<rect x="519.5" y="3528.5" width="147" height="147" stroke="#666666"/>
<rect x="666.5" y="3528.5" width="147" height="147" stroke="#666666"/>
<rect x="813.5" y="3528.5" width="147" height="147" stroke="#666666"/>
<rect x="960.5" y="3528.5" width="147" height="147" stroke="#666666"/>
<rect x="1107.5" y="3528.5" width="147" height="147" stroke="#666666"/>
<rect x="1254.5" y="3528.5" width="147" height="147" stroke="#666666"/>
<rect x="1401.5" y="3528.5" width="147" height="147" stroke="#666666"/>
<rect x="1548.5" y="3528.5" width="147" height="147" stroke="#666666"/>
<rect x="1695.5" y="3528.5" width="147" height="147" stroke="#666666"/>
<rect x="1842.5" y="3528.5" width="147" height="147" stroke="#666666"/>
<rect x="-68.5" y="3675.5" width="147" height="147" stroke="#666666"/>
<rect x="78.5" y="3675.5" width="147" height="147" stroke="#666666"/>
<rect x="225.5" y="3675.5" width="147" height="147" stroke="#666666"/>
<rect x="372.5" y="3675.5" width="147" height="147" stroke="#666666"/>
<rect x="519.5" y="3675.5" width="147" height="147" stroke="#666666"/>
<rect x="666.5" y="3675.5" width="147" height="147" stroke="#666666"/>
<rect x="813.5" y="3675.5" width="147" height="147" stroke="#666666"/>
<rect x="960.5" y="3675.5" width="147" height="147" stroke="#666666"/>
<rect x="1107.5" y="3675.5" width="147" height="147" stroke="#666666"/>
<rect x="1254.5" y="3675.5" width="147" height="147" stroke="#666666"/>
<rect x="1401.5" y="3675.5" width="147" height="147" stroke="#666666"/>
<rect x="1548.5" y="3675.5" width="147" height="147" stroke="#666666"/>
<rect x="1695.5" y="3675.5" width="147" height="147" stroke="#666666"/>
<rect x="1842.5" y="3675.5" width="147" height="147" stroke="#666666"/>
</g>
<defs>
<filter id="filter0_d_1_5893" x="-73" y="0" width="2067" height="3831" filterUnits="userSpaceOnUse" color-interpolation-filters="sRGB">
<feFlood flood-opacity="0" result="BackgroundImageFix"/>
<feColorMatrix in="SourceAlpha" type="matrix" values="0 0 0 0 0 0 0 0 0 0 0 0 0 0 0 0 0 0 127 0" result="hardAlpha"/>
<feOffset dy="4"/>
<feGaussianBlur stdDeviation="2"/>
<feComposite in2="hardAlpha" operator="out"/>
<feColorMatrix type="matrix" values="0 0 0 0 0 0 0 0 0 0 0 0 0 0 0 0 0 0 0.25 0"/>
<feBlend mode="normal" in2="BackgroundImageFix" result="effect1_dropShadow_1_5893"/>
<feBlend mode="normal" in="SourceGraphic" in2="effect1_dropShadow_1_5893" result="shape"/>
</filter>
</defs>
</svg>
